<mxfile host="app.diagrams.net" agent="Mozilla/5.0 (Windows NT 10.0; Win64; x64) AppleWebKit/537.36 (KHTML, like Gecko) Chrome/127.0.0.0 Safari/537.36 Edg/127.0.0.0" version="24.7.6">
  <diagram name="Page-1" id="0L8Xhaw6FUPmpVXUS7-L">
    <mxGraphModel dx="1806" dy="1733" grid="1" gridSize="10" guides="1" tooltips="1" connect="1" arrows="1" fold="1" page="1" pageScale="1" pageWidth="827" pageHeight="1169" math="0" shadow="0">
      <root>
        <mxCell id="0" />
        <mxCell id="1" parent="0" />
        <mxCell id="tGOSmJSOXbw5QGEx6rPb-1" value="&lt;h1 style=&quot;margin-top: 0px;&quot;&gt;State Transition Graph (STG)&lt;/h1&gt;" style="text;html=1;whiteSpace=wrap;overflow=hidden;rounded=0;" vertex="1" parent="1">
          <mxGeometry x="250" y="-20" width="370" height="40" as="geometry" />
        </mxCell>
        <mxCell id="tGOSmJSOXbw5QGEx6rPb-4" value="&lt;font style=&quot;font-size: 25px;&quot;&gt;IDLE&lt;/font&gt;" style="ellipse;whiteSpace=wrap;html=1;aspect=fixed;fillColor=#dae8fc;strokeColor=#6c8ebf;" vertex="1" parent="1">
          <mxGeometry x="380" y="100" width="110" height="110" as="geometry" />
        </mxCell>
        <mxCell id="tGOSmJSOXbw5QGEx6rPb-5" value="&lt;font style=&quot;font-size: 25px;&quot;&gt;LOAD&lt;/font&gt;" style="ellipse;whiteSpace=wrap;html=1;aspect=fixed;fillColor=#dae8fc;strokeColor=#6c8ebf;" vertex="1" parent="1">
          <mxGeometry x="555" y="330" width="120" height="120" as="geometry" />
        </mxCell>
        <mxCell id="tGOSmJSOXbw5QGEx6rPb-6" value="&lt;font style=&quot;font-size: 12px;&quot;&gt;&lt;b&gt;TRANSMISSION&lt;/b&gt;&lt;/font&gt;" style="ellipse;whiteSpace=wrap;html=1;aspect=fixed;fillColor=#dae8fc;strokeColor=#6c8ebf;" vertex="1" parent="1">
          <mxGeometry x="175" y="330" width="110" height="110" as="geometry" />
        </mxCell>
        <mxCell id="tGOSmJSOXbw5QGEx6rPb-8" value="" style="edgeStyle=none;orthogonalLoop=1;jettySize=auto;html=1;rounded=0;entryX=0;entryY=0.364;entryDx=0;entryDy=0;exitX=1.065;exitY=0.719;exitDx=0;exitDy=0;exitPerimeter=0;entryPerimeter=0;" edge="1" parent="1" source="tGOSmJSOXbw5QGEx6rPb-9" target="tGOSmJSOXbw5QGEx6rPb-4">
          <mxGeometry width="80" relative="1" as="geometry">
            <mxPoint x="400" y="80" as="sourcePoint" />
            <mxPoint x="510" y="80" as="targetPoint" />
            <Array as="points" />
          </mxGeometry>
        </mxCell>
        <mxCell id="tGOSmJSOXbw5QGEx6rPb-9" value="&lt;font style=&quot;font-size: 20px;&quot;&gt;reset&lt;/font&gt;" style="text;html=1;align=center;verticalAlign=middle;resizable=0;points=[];autosize=1;strokeColor=none;fillColor=none;" vertex="1" parent="1">
          <mxGeometry x="250" y="70" width="70" height="40" as="geometry" />
        </mxCell>
        <mxCell id="tGOSmJSOXbw5QGEx6rPb-11" value="&lt;font style=&quot;font-size: 16px;&quot;&gt;!load_data&lt;/font&gt;" style="text;html=1;align=center;verticalAlign=middle;resizable=0;points=[];autosize=1;strokeColor=none;fillColor=none;" vertex="1" parent="1">
          <mxGeometry x="540" y="100" width="100" height="30" as="geometry" />
        </mxCell>
        <mxCell id="tGOSmJSOXbw5QGEx6rPb-13" value="" style="edgeStyle=none;orthogonalLoop=1;jettySize=auto;html=1;rounded=0;exitX=1;exitY=1;exitDx=0;exitDy=0;entryX=0.254;entryY=0.085;entryDx=0;entryDy=0;entryPerimeter=0;" edge="1" parent="1" source="tGOSmJSOXbw5QGEx6rPb-4" target="tGOSmJSOXbw5QGEx6rPb-5">
          <mxGeometry width="80" relative="1" as="geometry">
            <mxPoint x="520" y="300" as="sourcePoint" />
            <mxPoint x="600" y="300" as="targetPoint" />
            <Array as="points" />
          </mxGeometry>
        </mxCell>
        <mxCell id="tGOSmJSOXbw5QGEx6rPb-14" value="" style="edgeStyle=none;orthogonalLoop=1;jettySize=auto;html=1;rounded=0;exitX=0;exitY=0.5;exitDx=0;exitDy=0;entryX=1;entryY=0.5;entryDx=0;entryDy=0;" edge="1" parent="1" source="tGOSmJSOXbw5QGEx6rPb-5" target="tGOSmJSOXbw5QGEx6rPb-6">
          <mxGeometry width="80" relative="1" as="geometry">
            <mxPoint x="430" y="350" as="sourcePoint" />
            <mxPoint x="350" y="350" as="targetPoint" />
            <Array as="points" />
          </mxGeometry>
        </mxCell>
        <mxCell id="tGOSmJSOXbw5QGEx6rPb-15" value="" style="edgeStyle=none;orthogonalLoop=1;jettySize=auto;html=1;rounded=0;entryX=0;entryY=1;entryDx=0;entryDy=0;" edge="1" parent="1" source="tGOSmJSOXbw5QGEx6rPb-6" target="tGOSmJSOXbw5QGEx6rPb-4">
          <mxGeometry width="80" relative="1" as="geometry">
            <mxPoint x="220" y="330" as="sourcePoint" />
            <mxPoint x="300" y="330" as="targetPoint" />
            <Array as="points" />
          </mxGeometry>
        </mxCell>
        <mxCell id="tGOSmJSOXbw5QGEx6rPb-17" value="&lt;font style=&quot;font-size: 16px;&quot;&gt;load_data/ &lt;font color=&quot;#0000ff&quot;&gt;en_data_reg&lt;/font&gt;&lt;/font&gt;" style="text;html=1;align=center;verticalAlign=middle;resizable=0;points=[];autosize=1;strokeColor=none;fillColor=none;" vertex="1" parent="1">
          <mxGeometry x="520" y="230" width="190" height="30" as="geometry" />
        </mxCell>
        <mxCell id="tGOSmJSOXbw5QGEx6rPb-20" value="&lt;font style=&quot;font-size: 16px;&quot;&gt;!tx_start/ &lt;font color=&quot;#0000cc&quot;&gt;load&lt;/font&gt;&lt;/font&gt;" style="text;html=1;align=center;verticalAlign=middle;resizable=0;points=[];autosize=1;strokeColor=none;fillColor=none;" vertex="1" parent="1">
          <mxGeometry x="640" y="300" width="120" height="30" as="geometry" />
        </mxCell>
        <mxCell id="tGOSmJSOXbw5QGEx6rPb-21" value="&lt;font style=&quot;font-size: 16px;&quot;&gt;tx_start/ &lt;font color=&quot;#0000ff&quot;&gt;shift&lt;/font&gt;, &lt;font color=&quot;#0000cc&quot;&gt;en_count&lt;/font&gt;&lt;/font&gt;" style="text;html=1;align=center;verticalAlign=middle;resizable=0;points=[];autosize=1;strokeColor=none;fillColor=none;" vertex="1" parent="1">
          <mxGeometry x="330" y="350" width="190" height="30" as="geometry" />
        </mxCell>
        <mxCell id="tGOSmJSOXbw5QGEx6rPb-22" style="edgeStyle=orthogonalEdgeStyle;rounded=0;orthogonalLoop=1;jettySize=auto;html=1;exitX=0;exitY=0.5;exitDx=0;exitDy=0;curved=1;" edge="1" parent="1" source="tGOSmJSOXbw5QGEx6rPb-6" target="tGOSmJSOXbw5QGEx6rPb-6">
          <mxGeometry relative="1" as="geometry" />
        </mxCell>
        <mxCell id="tGOSmJSOXbw5QGEx6rPb-23" value="&lt;font style=&quot;font-size: 16px;&quot;&gt;!count10/ &lt;font color=&quot;#0000ff&quot;&gt;shift&lt;/font&gt;, &lt;font color=&quot;#0000ff&quot;&gt;en_count&lt;/font&gt;&lt;/font&gt;" style="text;html=1;align=center;verticalAlign=middle;resizable=0;points=[];autosize=1;strokeColor=none;fillColor=none;" vertex="1" parent="1">
          <mxGeometry x="130" y="470" width="200" height="30" as="geometry" />
        </mxCell>
        <mxCell id="tGOSmJSOXbw5QGEx6rPb-24" value="&lt;font style=&quot;font-size: 16px;&quot;&gt;count10 / &lt;font color=&quot;#0000ff&quot;&gt;tx_stop&lt;/font&gt;&lt;/font&gt;" style="text;html=1;align=center;verticalAlign=middle;resizable=0;points=[];autosize=1;strokeColor=none;fillColor=none;" vertex="1" parent="1">
          <mxGeometry x="160" y="250" width="150" height="30" as="geometry" />
        </mxCell>
        <mxCell id="tGOSmJSOXbw5QGEx6rPb-25" style="edgeStyle=orthogonalEdgeStyle;rounded=0;orthogonalLoop=1;jettySize=auto;html=1;exitX=1;exitY=0;exitDx=0;exitDy=0;entryX=0.969;entryY=0.644;entryDx=0;entryDy=0;entryPerimeter=0;curved=1;" edge="1" parent="1" source="tGOSmJSOXbw5QGEx6rPb-5" target="tGOSmJSOXbw5QGEx6rPb-5">
          <mxGeometry relative="1" as="geometry">
            <Array as="points">
              <mxPoint x="657" y="330" />
              <mxPoint x="720" y="330" />
              <mxPoint x="720" y="420" />
              <mxPoint x="671" y="420" />
            </Array>
          </mxGeometry>
        </mxCell>
        <mxCell id="tGOSmJSOXbw5QGEx6rPb-26" style="edgeStyle=orthogonalEdgeStyle;rounded=0;orthogonalLoop=1;jettySize=auto;html=1;exitX=1;exitY=0;exitDx=0;exitDy=0;entryX=1;entryY=0.636;entryDx=0;entryDy=0;entryPerimeter=0;curved=1;" edge="1" parent="1" source="tGOSmJSOXbw5QGEx6rPb-4" target="tGOSmJSOXbw5QGEx6rPb-4">
          <mxGeometry relative="1" as="geometry">
            <Array as="points">
              <mxPoint x="474" y="90" />
              <mxPoint x="540" y="90" />
              <mxPoint x="540" y="170" />
            </Array>
          </mxGeometry>
        </mxCell>
        <mxCell id="tGOSmJSOXbw5QGEx6rPb-27" value="" style="endArrow=none;dashed=1;html=1;dashPattern=1 3;strokeWidth=2;rounded=0;" edge="1" parent="1">
          <mxGeometry width="50" height="50" relative="1" as="geometry">
            <mxPoint y="570" as="sourcePoint" />
            <mxPoint y="-40" as="targetPoint" />
          </mxGeometry>
        </mxCell>
        <mxCell id="tGOSmJSOXbw5QGEx6rPb-28" value="" style="endArrow=none;dashed=1;html=1;dashPattern=1 3;strokeWidth=2;rounded=0;" edge="1" parent="1">
          <mxGeometry width="50" height="50" relative="1" as="geometry">
            <mxPoint x="827" y="560" as="sourcePoint" />
            <mxPoint x="827" y="-40" as="targetPoint" />
          </mxGeometry>
        </mxCell>
        <mxCell id="tGOSmJSOXbw5QGEx6rPb-29" value="" style="endArrow=none;dashed=1;html=1;dashPattern=1 3;strokeWidth=2;rounded=0;" edge="1" parent="1">
          <mxGeometry width="50" height="50" relative="1" as="geometry">
            <mxPoint y="-40" as="sourcePoint" />
            <mxPoint x="830" y="-40" as="targetPoint" />
          </mxGeometry>
        </mxCell>
        <mxCell id="tGOSmJSOXbw5QGEx6rPb-30" value="" style="endArrow=none;dashed=1;html=1;dashPattern=1 3;strokeWidth=2;rounded=0;" edge="1" parent="1">
          <mxGeometry width="50" height="50" relative="1" as="geometry">
            <mxPoint y="560" as="sourcePoint" />
            <mxPoint x="830" y="560" as="targetPoint" />
          </mxGeometry>
        </mxCell>
      </root>
    </mxGraphModel>
  </diagram>
</mxfile>
